<svg width="151" height="584" viewBox="0 0 151 584" fill="none" xmlns="http://www.w3.org/2000/svg">
<path d="M38.6537 153.528C40.8996 157.315 42.3353 160.705 44.6667 163.285C45.9609 164.716 47.2275 165.605 45.9109 167.269C41.0676 173.39 44.2952 180.84 42.3777 187.459C40.0765 195.403 43.4503 201.544 47.7368 208.403C54.8875 219.835 66.3545 226.746 74.5886 236.984C79.2125 242.514 84.4294 247.518 90.1459 251.908C100.58 260.16 106.551 271.578 113.396 282.478C118.125 290.006 124.818 295.947 126.659 305.616C129.487 320.461 126.952 334.183 121.762 347.853C120.254 351.825 117.228 352.457 112.504 351.197C117.416 355.246 116.048 357.477 113.012 361.322C106.389 369.711 100.665 378.652 89.2355 381.117C88.8364 381.233 88.4648 381.428 88.1435 381.692C87.8222 381.955 87.5579 382.282 87.3668 382.651C81.9367 394.987 70.4866 401.108 60.3352 408.406C56.9641 410.829 54.7681 412.201 54.4408 417.163C54.1333 421.874 53.8397 427.703 48.4127 431.212C44.4919 433.74 50.0364 435.917 49.8714 439.133C48.2579 470.988 62.5703 496.13 82.9719 519.347C91.779 529.255 101.117 538.677 110.945 547.573C119.72 555.604 130.815 562.066 142.406 566.491C145.703 567.75 149.045 568.657 150.049 572.377C151.227 576.741 146.445 576.944 144.519 578.775C137.477 585.468 130.555 583.911 121.697 579.9C112.914 575.932 103.306 573.369 95.4751 567.57C75.6214 552.868 54.7288 539.296 40.8799 517.852C24.9356 493.165 14.4366 467.327 17.7761 436.909C18.7023 428.465 18.5555 419.408 23.8666 413.351C32.0884 403.975 39.7457 393.791 50.6941 386.888C61.7381 379.925 71.2861 371.116 77.4536 359.321C89.6798 335.943 82.7569 314.462 69.2428 294.774C55.4693 274.707 36.1846 259.323 20.1901 241.137C-1.09497 216.938 -5.7938 191.268 8.15738 163.686C13.5585 152.836 21.5912 143.511 31.5215 136.561C44.1861 127.781 56.1963 118.483 63.3442 103.814C69.5528 91.0744 69.2776 71.6187 59.9172 60.9659C49.5114 49.1233 38.5265 37.79 27.8318 26.1995C24.0338 22.0711 20.974 17.3201 18.7859 12.1539C17.3192 8.71196 18.2058 4.76857 21.5188 3.239C25.2512 1.51546 25.9852 5.03569 26.3871 7.93619C26.6861 10.0978 28.0181 10.7493 29.9907 10.2728C32.0603 9.77534 32.4927 8.71387 31.7751 6.54804C29.8265 0.6653 32.4793 -0.0762426 37.297 2.00332C40.9567 3.5826 43.5428 -0.398358 48.4354 1.18347C57.0886 3.98171 63.1123 8.99554 69.0551 14.9611C69.7323 15.4707 70.3472 16.058 70.8874 16.711C73.4313 21.0086 83.4872 32.4544 88.6937 35.6324C92.1037 37.7133 92.5396 42.1657 96.4406 43.7595C97.7416 44.2901 97.1258 46.297 95.3855 46.8247C94.3336 47.1437 92.7923 47.1812 94.3018 48.6678C104.494 58.7091 106.497 61.8767 107.265 69.4361C108.033 76.9955 104.939 84.3346 106.094 92.0059C106.467 94.479 103.394 95.2125 101.066 95.5094C99.4243 95.7205 97.4007 95.491 97.2874 97.8953C97.2036 99.6829 98.2042 101.931 99.6384 101.987C105.66 102.221 103.452 104.967 101.671 107.694C97.8254 113.587 95.1281 121.056 89.8218 124.987C80.286 132.049 72.0768 140.444 63.0373 147.949C59.697 150.721 55.9073 153.16 50.7584 151.265C46.8365 149.826 43.3833 153.026 38.6537 153.528ZM25.9496 435.458C20.1726 457.604 27.0694 489.492 40.0887 500.869C36.2555 490.25 32.5059 479.676 30.1908 468.545C27.9091 457.591 28.2395 446.345 25.9496 435.458ZM73.5276 58.8943C75.8669 62.1902 76.327 65.23 73.9441 68.1585C72.791 69.5761 72.3378 70.4635 73.2385 72.4779C76.3674 79.4751 75.3223 86.5276 72.5618 93.4676C72.0058 94.8654 70.4902 96.9633 72.7807 97.7245C74.68 98.3568 76.0383 96.9162 76.9101 94.6951C80.4687 85.6303 79.3274 76.0544 79.8405 66.7378C79.9511 64.6463 80.0231 58.7391 73.5276 58.8943ZM13.2976 184.185C12.1722 183.397 11.1942 183.975 10.3279 185.404C8.26704 188.804 9.2988 207.286 11.8749 210.565C12.1278 210.867 12.4422 211.111 12.7971 211.281C13.152 211.451 13.5393 211.544 13.933 211.552C15.2444 211.413 15.647 210.495 15.3101 209.121C13.633 202.273 14.6617 195.282 14.3872 188.36C14.3378 186.986 14.9134 185.608 13.3008 184.188L13.2976 184.185ZM93.3951 330.142C95.7916 322.982 93.8982 316.805 88.9359 311.492L93.3951 330.142Z" fill="black"/>
</svg>
