<svg width="189" height="189" viewBox="0 0 189 189" fill="none" xmlns="http://www.w3.org/2000/svg">
<path d="M12.3229 143.259C8.16544 141.043 5.43308 138.316 7.18713 133.405C7.95277 131.261 11.192 129.042 13.6638 129.002C11.8086 127.739 11.297 126.539 12.8511 124.536C14.1322 122.886 14.4742 120.524 15.6733 118.782C20.5147 111.752 25.6615 104.915 33.3366 100.715C35.305 99.6374 38.3248 100.347 38.8061 97.06C44.002 93.941 49.193 90.795 55.1475 89.294C56.5701 88.9355 58.0685 88.8723 59.5361 88.6961C65.7374 87.948 71.9375 87.1906 78.1453 86.5033C78.562 86.4571 79.0185 87.0209 79.4956 87.1946C79.9318 87.3114 80.3785 87.3853 80.8291 87.4155C81.1874 84.6497 83.4838 85.9748 84.534 86.1084C87.6996 86.511 90.7898 87.5075 93.9079 88.2782C94.2708 88.3681 94.6769 88.6627 94.9742 88.5755C98.2554 87.5921 101.214 87.7981 104.155 89.9273C105.194 90.6778 107.098 90.2317 108.525 90.9332C109.158 90.6049 109.8 89.9758 110.424 89.996C116.927 90.1957 123.426 90.499 130.024 90.7789C131.678 88.7831 137.793 87.3487 140.3 88.6819L140.034 87.4544C141.371 86.6571 142.771 86.1596 143.707 85.2065C148.482 80.3455 153.105 75.4551 155.857 68.9435C158.677 62.2712 162.452 56.0087 165.483 49.4161C166.558 47.0812 166.775 44.3215 167.187 41.7249C167.43 40.1941 167.818 39.4088 169.575 39.842C174.263 40.9967 176.305 43.2374 175.184 48.0709C173.67 54.6038 171.98 61.2893 169.026 67.2457C165.382 74.5955 160.637 81.4593 155.861 88.1732C150.736 95.3807 142.797 97.7288 134.467 98.8366C125.414 100.003 116.226 99.5923 107.313 97.6219C96.41 95.2887 85.4008 95.3641 74.338 96.5794C62.7472 97.8526 51.8915 101.235 42.0328 107.44C34.5007 112.181 27.7597 117.842 23.1877 125.721C19.8697 131.442 16.3984 137.073 12.9799 142.735C12.7915 142.945 12.5694 143.122 12.3229 143.259ZM37.7819 106.93L58.1262 97.1328C50.6504 98.6996 43.6681 102.062 37.7819 106.93ZM156.68 82.0358L144.583 94.1323C150.352 91.4931 154.247 87.4645 156.68 82.0358Z" fill="black"/>
<path d="M53.5611 128.627C58.0971 129.924 58.8166 130.773 58.8545 135.193C58.8942 139.911 58.7077 144.633 58.6361 149.353C58.6243 150.123 58.7947 150.905 58.7067 151.661C58.552 152.988 58.2622 154.299 58.0288 155.616C56.7616 154.695 55.0972 154.021 54.3301 152.789C53.3756 151.227 52.8622 149.436 52.8445 147.606C52.9087 141.39 53.2872 135.179 53.5611 128.627Z" fill="black"/>
<path d="M96.6775 130.184C98.5132 133.291 100.506 136.456 102.237 139.758C102.608 140.466 102.029 141.671 101.888 142.647C100.95 142.482 99.9345 142.486 99.0977 142.104C98.232 141.689 97.4728 141.081 96.8781 140.328C94.2455 137.001 91.6886 133.617 89.1316 130.232C88.6492 129.629 88.2612 128.956 87.9808 128.236C87.8087 127.748 87.7674 126.858 88.0445 126.649C88.4866 126.317 89.384 126.124 89.8425 126.357C92.0572 127.481 94.1922 128.77 96.6775 130.184Z" fill="black"/>
<path d="M133.351 42.2841C136.479 42.0318 137.807 43.1632 138.04 45.4351C138.352 48.4871 138.681 51.5591 138.653 54.619C138.644 55.5987 137.527 56.5684 136.916 57.5433C135.669 56.5129 133.463 55.5773 133.349 54.4346C132.957 50.469 133.291 46.4317 133.351 42.2841Z" fill="black"/>
<path d="M112.269 45.5355C118.319 47.9115 118.155 53.9086 120.305 58.4435C120.501 58.8588 119.745 60.2761 119.496 60.2612C118.25 60.1798 116.188 60.0978 115.93 59.43C114.293 55.1925 113.051 50.8027 111.715 46.4521C111.661 46.2793 111.981 45.9931 112.269 45.5355Z" fill="black"/>
<path d="M71.3684 135.485C72.5234 136.377 74.139 137.032 74.7444 138.208C76.4052 141.432 77.7161 144.849 78.9871 148.254C79.2579 148.979 78.7785 149.984 78.6446 150.86C77.7144 150.57 76.3203 150.565 75.9356 149.94C74.3847 147.428 73.0276 144.801 71.8762 142.083C71.0918 140.218 70.7967 138.148 70.2829 136.169L71.3684 135.485Z" fill="black"/>
<path d="M92.8378 66.4902C93.8834 66.0843 94.3176 65.7438 94.7016 65.7933C98.7192 66.3119 102.757 66.7524 106.723 67.5466C107.849 67.7718 108.758 69.0786 109.491 70.2867C103.767 70.0425 98.0867 70.366 92.8378 66.4902Z" fill="black"/>
</svg>
