<svg width="165" height="36" viewBox="0 0 165 36" fill="none" xmlns="http://www.w3.org/2000/svg">
<path d="M42.6816 21.6243C43.7882 21.0986 44.7644 20.7874 45.5388 20.2073C45.9684 19.8853 46.247 19.557 46.6743 19.9643C48.2469 21.4627 50.3934 20.7586 52.1787 21.459C54.3211 22.2995 56.1088 21.5215 58.1187 20.509C61.469 18.8196 63.6768 15.8188 66.724 13.7987C68.3742 12.6587 69.8941 11.341 71.2566 9.86914C73.8095 7.18889 77.1258 5.826 80.3208 4.20768C82.5275 3.0895 84.3447 1.38684 87.0708 1.12368C91.2562 0.719194 94.9937 1.77214 98.649 3.55925C99.7111 4.07847 99.8088 4.93317 99.3391 6.20986C100.587 4.95216 101.17 5.38843 102.158 6.32774C104.313 8.37714 106.644 10.1916 107.035 13.4214C107.057 13.535 107.102 13.643 107.167 13.7387C107.231 13.8345 107.315 13.916 107.412 13.9784C110.692 15.7981 112.096 19.1271 113.859 22.1263C114.444 23.1223 114.768 23.7658 116.134 23.9832C117.432 24.1887 119.039 24.4189 119.873 26.0123C120.474 27.1633 121.218 25.6826 122.105 25.8104C130.891 27.0711 138.223 23.7475 145.177 18.6874C148.147 16.5002 150.996 14.1534 153.712 11.6573C156.162 9.43107 158.236 6.52186 159.758 3.42314C160.191 2.54174 160.527 1.63897 161.584 1.45573C162.823 1.24092 162.757 2.57113 163.215 3.15152C164.89 5.27354 164.282 7.15176 162.944 9.50385C161.621 11.836 160.665 14.4328 158.858 16.4546C154.277 21.5803 149.983 27.0227 143.687 30.3124C136.44 34.0998 129.012 36.349 120.669 34.6468C118.353 34.1745 115.84 33.9838 114.297 32.3575C111.909 29.8399 109.283 27.4581 107.65 24.2481C106.003 21.0102 103.806 18.1396 100.695 16.1294C94.5296 12.1446 88.4007 13.5142 82.6001 16.7559C76.6881 20.0598 71.933 25.0105 66.4853 28.9778C59.2364 34.2576 52.0037 34.9039 44.7174 30.3338C41.849 28.5601 39.4702 26.0962 37.7982 23.1671C35.6888 19.4337 33.4194 15.8684 29.5373 13.5132C26.1658 11.4675 20.7679 11.0468 17.5771 13.3684C14.0299 15.9492 10.609 18.7035 7.12434 21.3708C5.88341 22.3178 4.48884 23.0442 3.00147 23.5186C2.01028 23.8371 0.940269 23.4907 0.601061 22.5336C0.218817 21.4555 1.21297 21.342 2.02693 21.3047C2.63351 21.277 2.84806 20.9246 2.76641 20.3658C2.68142 19.7797 2.39835 19.6328 1.7799 19.7763C0.100105 20.166 -0.0376081 19.412 0.661654 18.1302C1.19272 17.1565 0.155702 16.3382 0.718962 15.0229C1.71532 12.6967 3.25843 11.1557 5.06319 9.66141C5.22167 9.48678 5.40012 9.33138 5.59486 9.19841C6.85062 8.60327 10.2789 6.10927 11.2925 4.74778C11.9562 3.85606 13.201 3.84899 13.7422 2.80878C13.9225 2.46186 14.4629 2.68375 14.5646 3.17944C14.6262 3.47905 14.5972 3.90706 15.0477 3.52678C18.0903 0.959165 19.0191 0.485031 21.1333 0.465271C23.2476 0.44551 25.2021 1.49017 27.3572 1.36609C28.052 1.32607 28.1768 2.1962 28.1995 2.84896C28.2161 3.30915 28.1008 3.864 28.7641 3.95679C29.2573 4.02568 29.9059 3.80585 29.958 3.40988C30.1766 1.74734 30.881 2.42931 31.5913 2.99236C33.1258 4.20849 35.1266 5.14666 36.0801 6.71734C37.7935 9.53995 39.91 12.029 41.7585 14.7254C42.4412 15.7217 43.0203 16.8341 42.3636 18.2124C41.8649 19.2624 42.6634 20.3009 42.6816 21.6243ZM120.476 32.345C126.465 34.5113 135.477 33.4147 138.962 30.0979C135.921 30.8887 132.896 31.6577 129.752 32.0148C126.659 32.3673 123.551 31.9885 120.476 32.345ZM17.3507 9.5442C18.3237 8.98019 19.1777 8.93034 19.9283 9.66541C20.2917 10.0211 20.526 10.1694 21.1071 9.97126C23.1259 9.28298 25.0533 9.7527 26.9058 10.6948C27.2789 10.8846 27.8215 11.3581 28.0909 10.7429C28.3146 10.2328 27.9501 9.81963 27.357 9.52134C24.9361 8.30376 22.2536 8.37544 19.6852 7.99531C19.1085 7.91125 17.4736 7.74044 17.3507 9.5442ZM50.5287 29.4331C50.2815 29.7248 50.4167 30.0105 50.7906 30.2871C51.6801 30.9449 56.8274 31.1311 57.8019 30.501C57.8919 30.4387 57.9676 30.3578 58.0238 30.2638C58.0801 30.1698 58.1156 30.0649 58.128 29.956C58.1229 29.589 57.8789 29.4541 57.4894 29.5123C55.5492 29.8021 53.6385 29.3385 51.7133 29.2378C51.3315 29.2164 50.9643 29.0217 50.5296 29.4323L50.5287 29.4331ZM93.017 10.967C91.0944 10.1201 89.3344 10.4869 87.7354 11.7262L93.017 10.967Z" fill="black"/>
</svg>
