<svg width="141" height="141" viewBox="0 0 141 141" fill="none" xmlns="http://www.w3.org/2000/svg">
<path d="M121.439 74.6279C121.51 73.7909 121.704 73.0045 122.021 72.2687C122.338 71.5329 122.707 70.9689 123.128 70.5765L123.886 71.1026C123.492 71.4973 123.146 72.0165 122.851 72.6605C122.554 73.3177 122.374 74.0116 122.312 74.7423C122.223 75.7919 122.33 76.5771 122.634 77.0981C122.936 77.6323 123.393 77.9254 124.004 77.9774C124.443 78.0147 124.8 77.9045 125.076 77.647C125.351 77.4028 125.565 77.0865 125.719 76.6981C125.872 76.3097 126.045 75.7691 126.238 75.0762C126.454 74.265 126.67 73.6143 126.886 73.1241C127.102 72.634 127.417 72.2259 127.833 71.9C128.249 71.574 128.796 71.4399 129.473 71.4975C130.297 71.5676 130.946 71.964 131.419 72.6867C131.905 73.4239 132.095 74.4235 131.987 75.6857C131.931 76.3499 131.782 76.9996 131.54 77.6348C131.299 78.27 131.008 78.7805 130.667 79.1663L129.909 78.6402C130.251 78.241 130.525 77.7759 130.731 77.2448C130.936 76.7136 131.063 76.1624 131.112 75.5911C131.195 74.6213 131.077 73.8754 130.76 73.3533C130.444 72.8312 129.993 72.5453 129.408 72.4956C128.943 72.4561 128.566 72.5645 128.277 72.8209C128 73.0784 127.779 73.4008 127.612 73.7881C127.458 74.1897 127.276 74.7497 127.068 75.468C126.853 76.266 126.638 76.9034 126.424 77.3802C126.221 77.8715 125.919 78.2741 125.518 78.5878C125.117 78.9016 124.59 79.0308 123.939 78.9755C123.076 78.902 122.416 78.4846 121.958 77.7231C121.501 76.9616 121.328 75.9299 121.439 74.6279Z" fill="white"/>
<path d="M119.616 84.6475C119.885 83.6704 120.344 82.8563 120.993 82.2052C121.642 81.5541 122.413 81.1161 123.304 80.8911C124.209 80.6698 125.149 80.6934 126.126 80.9622C127.116 81.2345 127.937 81.6953 128.588 82.3445C129.252 82.9973 129.69 83.7678 129.902 84.6558C130.127 85.5474 130.105 86.4817 129.836 87.4588C129.613 88.2687 129.251 88.9573 128.749 89.5245C128.257 90.1081 127.652 90.5225 126.935 90.7677L126.61 89.911C127.211 89.689 127.707 89.3416 128.1 88.8688C128.502 88.4124 128.792 87.8629 128.968 87.2201C129.184 86.4359 129.199 85.6793 129.012 84.9503C128.835 84.2378 128.474 83.6131 127.93 83.0763C127.383 82.5524 126.692 82.1755 125.856 81.9457C125.02 81.7158 124.233 81.686 123.495 81.8563C122.753 82.0395 122.117 82.3901 121.588 82.9081C121.067 83.4426 120.699 84.1019 120.484 84.8861C120.307 85.5289 120.268 86.1475 120.367 86.7418C120.476 87.3524 120.731 87.9067 121.134 88.4046L120.417 88.9749C119.926 88.3973 119.611 87.73 119.474 86.9731C119.346 86.2326 119.393 85.4574 119.616 84.6475Z" fill="white"/>
<path d="M124.726 94.6206C125.281 95.2304 125.597 95.9278 125.674 96.713C125.763 97.5037 125.604 98.3407 125.195 99.2239L124.305 98.8121L124.424 98.6027C124.912 97.5501 124.96 96.5733 124.569 95.6723C124.19 94.7769 123.414 94.0574 122.241 93.5139L117.304 91.2279L117.724 90.3205L127.198 94.7076L126.795 95.5787L124.726 94.6206Z" fill="white"/>
<path d="M112.338 99.814C112.907 99.0077 113.607 98.4083 114.439 98.0158C115.263 97.6342 116.132 97.4888 117.047 97.5794C117.973 97.6777 118.85 98.0189 119.678 98.603C120.506 99.187 121.116 99.8948 121.509 100.726C121.912 101.566 122.072 102.437 121.99 103.341C121.899 104.256 121.569 105.117 121.001 105.923C120.432 106.73 119.736 107.324 118.912 107.705C118.08 108.098 117.201 108.245 116.275 108.146C115.36 108.056 114.489 107.718 113.661 107.134C112.833 106.55 112.217 105.839 111.814 105C111.421 104.168 111.27 103.295 111.361 102.38C111.444 101.475 111.77 100.62 112.338 99.814ZM113.074 100.333C112.613 100.986 112.354 101.677 112.298 102.404C112.234 103.142 112.371 103.851 112.708 104.529C113.038 105.218 113.551 105.809 114.249 106.301C114.946 106.793 115.675 107.078 116.435 107.157C117.187 107.247 117.9 107.139 118.574 106.831C119.24 106.534 119.804 106.058 120.265 105.405C120.726 104.751 120.989 104.055 121.052 103.317C121.108 102.59 120.972 101.881 120.642 101.192C120.305 100.513 119.787 99.9283 119.09 99.4365C118.393 98.9447 117.668 98.6537 116.916 98.5637C116.156 98.4845 115.443 98.5934 114.776 98.8903C114.102 99.1981 113.535 99.6789 113.074 100.333Z" fill="white"/>
<path d="M118.329 115.975L117.635 116.695L106.952 106.394L107.646 105.674L118.329 115.975Z" fill="white"/>
<path d="M113.952 120.17L113.196 120.824L103.492 109.596L104.248 108.942L113.952 120.17Z" fill="white"/>
<path d="M95.2932 131.829L88.808 118.481L89.6895 118.053L90.7645 120.266C90.7809 119.354 91.0287 118.537 91.508 117.814C91.9873 117.092 92.6527 116.525 93.5042 116.111C94.3797 115.685 95.2702 115.505 96.1759 115.569C97.0816 115.633 97.9131 115.925 98.6705 116.447C99.4159 116.974 100.013 117.7 100.462 118.623C100.91 119.546 101.111 120.464 101.065 121.376C101.013 122.306 100.729 123.14 100.214 123.88C99.7044 124.631 99.012 125.22 98.1365 125.645C97.297 126.053 96.4513 126.219 95.5994 126.144C94.7355 126.074 93.9398 125.779 93.2123 125.258L96.1927 131.392L95.2932 131.829ZM93.8435 116.947C93.124 117.296 92.5639 117.776 92.1634 118.385C91.7509 119.001 91.5284 119.687 91.496 120.444C91.4515 121.207 91.6157 121.972 91.9887 122.74C92.3616 123.507 92.8616 124.109 93.4887 124.546C94.1039 124.988 94.7808 125.237 95.5196 125.293C96.2465 125.355 96.9696 125.211 97.6892 124.862C98.4088 124.512 98.9748 124.03 99.3873 123.414C99.7878 122.804 100.01 122.118 100.055 121.355C100.087 120.599 99.917 119.836 99.5441 119.069C99.1712 118.301 98.6771 117.696 98.062 117.254C97.4349 116.817 96.7579 116.568 96.0311 116.506C95.2923 116.45 94.5631 116.597 93.8435 116.947Z" fill="white"/>
<path d="M81.7868 120.31C82.7491 120.092 83.6704 120.116 84.5508 120.381C85.4182 120.649 86.1613 121.123 86.7803 121.803C87.4021 122.496 87.825 123.337 88.0489 124.325C88.2729 125.314 88.2521 126.248 87.9868 127.128C87.7244 128.022 87.2597 128.776 86.5926 129.392C85.9126 130.011 85.0914 130.43 84.1292 130.648C83.1669 130.866 82.2521 130.841 81.3847 130.572C80.5043 130.307 79.7531 129.828 79.1313 129.135C78.5124 128.455 78.0909 127.621 77.867 126.632C77.6431 125.644 77.6623 124.703 77.9247 123.81C78.1901 122.929 78.6628 122.18 79.3428 121.561C80.0098 120.945 80.8245 120.528 81.7868 120.31ZM81.9857 121.188C81.2054 121.364 80.551 121.704 80.0223 122.207C79.4806 122.712 79.1079 123.33 78.9041 124.06C78.6873 124.792 78.6732 125.575 78.8618 126.407C79.0504 127.239 79.4004 127.939 79.9118 128.507C80.4102 129.078 81.0128 129.474 81.7194 129.697C82.4131 129.922 83.1501 129.947 83.9303 129.77C84.7105 129.593 85.3715 129.252 85.9131 128.747C86.4418 128.244 86.8145 127.626 87.0313 126.894C87.2351 126.164 87.2427 125.383 87.0541 124.551C86.8656 123.719 86.5221 123.017 86.0237 122.446C85.5122 121.879 84.9097 121.482 84.216 121.257C83.5093 121.034 82.7659 121.011 81.9857 121.188Z" fill="white"/>
<path d="M59.539 131.701L63.8989 121.421L64.8382 121.458L68.006 130.647L71.893 121.73L72.8123 121.766L76.3665 132.351L75.4072 132.314L72.2894 122.866L68.3725 132.042L67.5131 132.009L64.3346 122.579L60.4584 131.736L59.539 131.701Z" fill="white"/>
<path d="M51.3399 129.123C50.0955 128.724 49.2274 128.047 48.7355 127.091C48.2436 126.136 48.2153 124.978 48.6506 123.62L50.5117 117.811L51.464 118.116L49.6273 123.849C49.2694 124.966 49.2825 125.908 49.6668 126.676C50.0383 127.439 50.732 127.983 51.7478 128.308C52.916 128.683 53.9484 128.628 54.8452 128.146C55.7419 127.663 56.3794 126.831 56.7577 125.65L58.4541 120.355L59.4064 120.66L56.2212 130.603L55.3069 130.31L55.9964 128.157C55.4299 128.746 54.747 129.129 53.948 129.307C53.1362 129.481 52.2668 129.42 51.3399 129.123Z" fill="white"/>
<path d="M41.386 112.455C42.0742 112.936 42.657 113.499 43.1344 114.142C43.6118 114.785 43.9144 115.388 44.0423 115.949L43.2067 116.341C43.0636 115.801 42.7877 115.242 42.3791 114.663C41.9596 114.077 41.4495 113.573 40.8486 113.153C39.9857 112.549 39.2527 112.247 38.6497 112.249C38.0358 112.242 37.5531 112.49 37.2014 112.993C36.9491 113.353 36.865 113.717 36.9492 114.085C37.0224 114.446 37.1885 114.79 37.4474 115.118C37.7063 115.445 38.087 115.866 38.5895 116.381C39.1827 116.975 39.6372 117.488 39.9529 117.921C40.2686 118.353 40.4631 118.831 40.5364 119.354C40.6096 119.878 40.4513 120.418 40.0614 120.975C39.5874 121.652 38.9189 122.014 38.056 122.061C37.1745 122.112 36.2149 121.774 35.1771 121.047C34.6309 120.665 34.1437 120.21 33.7155 119.683C33.2872 119.155 32.9917 118.647 32.8289 118.159L33.6645 117.767C33.8382 118.263 34.1031 118.733 34.4593 119.178C34.8154 119.623 35.2283 120.009 35.6981 120.338C36.4955 120.896 37.1995 121.169 37.8101 121.157C38.4207 121.145 38.8942 120.898 39.2306 120.418C39.4982 120.035 39.5937 119.655 39.5172 119.276C39.4331 118.908 39.2654 118.554 39.0141 118.216C38.7443 117.88 38.351 117.442 37.8343 116.902C37.252 116.315 36.8085 115.81 36.5037 115.385C36.1803 114.963 35.9836 114.5 35.9137 113.995C35.8437 113.491 35.996 112.971 36.3706 112.436C36.8676 111.725 37.5601 111.364 38.4481 111.351C39.3361 111.337 40.3154 111.705 41.386 112.455Z" fill="white"/>
<path d="M33.6235 105.832C34.3348 106.553 34.8098 107.358 35.0485 108.246C35.2872 109.134 35.2808 110.02 35.0292 110.905C34.7681 111.799 34.2768 112.601 33.555 113.312C32.8238 114.033 32.0142 114.513 31.1262 114.751C30.2287 115 29.3425 114.993 28.4676 114.732C27.5831 114.481 26.7852 113.994 26.0739 113.272C25.4843 112.674 25.0695 112.016 24.8296 111.297C24.5708 110.579 24.5149 109.848 24.6617 109.104L25.5657 109.252C25.4574 109.883 25.5096 110.487 25.7223 111.063C25.9161 111.64 26.247 112.166 26.7149 112.64C27.2859 113.22 27.9336 113.611 28.6581 113.814C29.3637 114.017 30.085 114.018 30.8219 113.816C31.5494 113.604 32.2218 113.194 32.839 112.586C33.4563 111.978 33.876 111.311 34.0981 110.587C34.3109 109.853 34.3256 109.127 34.1422 108.409C33.94 107.691 33.5535 107.043 32.9825 106.463C32.5146 105.988 31.9985 105.645 31.4343 105.434C30.8513 105.222 30.2436 105.166 29.6112 105.265L29.4763 104.359C30.2222 104.223 30.9571 104.285 31.6812 104.545C32.3865 104.804 33.0339 105.233 33.6235 105.832Z" fill="white"/>
<path d="M22.3706 105.177C21.5645 105.351 20.8026 105.273 20.085 104.946C19.3565 104.626 18.7132 104.067 18.1551 103.269L18.958 102.707L19.0792 102.916C19.7443 103.866 20.5646 104.399 21.54 104.513C22.5045 104.636 23.5166 104.326 24.5762 103.585L29.0331 100.465L29.6065 101.285L21.0531 107.271L20.5026 106.484L22.3706 105.177Z" fill="white"/>
<path d="M24.1407 91.9699C24.5553 92.8652 24.7251 93.7711 24.6499 94.6876C24.5691 95.5919 24.261 96.4178 23.7255 97.1654C23.178 97.9185 22.4445 98.508 21.5249 98.9338C20.6054 99.3597 19.6874 99.535 18.771 99.4598C17.8425 99.3902 17.0072 99.0937 16.2653 98.5704C15.5177 98.035 14.9367 97.3196 14.5221 96.4243C14.1074 95.529 13.9405 94.6291 14.0213 93.7248C14.0965 92.8083 14.4079 91.9736 14.9554 91.2204C15.4908 90.4729 16.2183 89.8862 17.1378 89.4604C18.0573 89.0345 18.9814 88.8564 19.9099 88.926C20.8263 89.0012 21.6583 89.3065 22.4059 89.8419C23.1478 90.3653 23.7261 91.0746 24.1407 91.9699ZM23.324 92.3481C22.9879 91.6222 22.5187 91.0533 21.9166 90.6416C21.3089 90.2177 20.6269 89.9825 19.8707 89.936C19.1089 89.8774 18.3408 90.0273 17.5664 90.3859C16.7921 90.7445 16.1809 91.2333 15.7329 91.8522C15.2792 92.459 15.0174 93.1312 14.9476 93.8689C14.8722 94.5944 15.0026 95.3201 15.3387 96.0461C15.6749 96.772 16.1469 97.3469 16.7546 97.7708C17.3567 98.1825 18.0386 98.4177 18.8005 98.4764C19.5567 98.5229 20.322 98.3669 21.0963 98.0083C21.8706 97.6497 22.4846 97.167 22.9383 96.5602C23.3864 95.9412 23.6481 95.269 23.7236 94.5435C23.7934 93.8058 23.6602 93.0741 23.324 92.3481Z" fill="white"/>
<path d="M7.12536 88.9954L6.85284 88.0332L21.1312 83.989L21.4037 84.9512L7.12536 88.9954Z" fill="white"/>
<path d="M5.70773 83.16L5.52413 82.177L20.1119 79.4523L20.2955 80.4353L5.70773 83.16Z" fill="white"/>
<path d="M5.02622 60.9075L19.8221 62.0512L19.7466 63.0283L17.2939 62.8387C18.0729 63.3135 18.653 63.9401 19.0342 64.7184C19.4153 65.4968 19.5694 66.3579 19.4965 67.3018C19.4214 68.2722 19.1276 69.1321 18.615 69.8815C18.1024 70.6309 17.4298 71.2007 16.5973 71.5911C15.7657 71.9681 14.8382 72.1171 13.8145 72.0379C12.7909 71.9588 11.8973 71.6691 11.1336 71.1687C10.3576 70.6541 9.78056 69.9876 9.4025 69.1694C9.01114 68.3501 8.85297 67.4553 8.92799 66.4848C8.99992 65.5543 9.28349 64.7404 9.7787 64.0431C10.2749 63.3326 10.9317 62.7949 11.7489 62.4302L4.94915 61.9045L5.02622 60.9075ZM18.6038 67.1726C18.6654 66.375 18.5343 65.6494 18.2104 64.9958C17.8875 64.3289 17.4075 63.7903 16.7706 63.38C16.1347 62.9564 15.3913 62.7117 14.5405 62.646C13.6897 62.5802 12.9176 62.7077 12.2242 63.0286C11.5317 63.3361 10.9747 63.7946 10.5532 64.4039C10.1327 64.9999 9.89159 65.6967 9.82993 66.4944C9.76828 67.292 9.8989 68.0242 10.2218 68.6911C10.5457 69.3447 11.0256 69.8833 11.6616 70.3069C12.2985 70.7172 13.0424 70.9552 13.8932 71.021C14.7439 71.0867 15.5156 70.9658 16.208 70.6583C16.9014 70.3375 17.4584 69.879 17.879 69.283C18.3005 68.6737 18.5421 67.9702 18.6038 67.1726Z" fill="white"/>
<path d="M21.7299 55.1771C21.4324 56.1179 20.9469 56.9013 20.2735 57.5274C19.6041 58.1408 18.8197 58.543 17.9202 58.734C17.008 58.921 16.0689 58.8618 15.1027 58.5562C14.1365 58.2507 13.3404 57.7612 12.7143 57.0878C12.0755 56.4103 11.6585 55.6282 11.4635 54.7415C11.2725 53.842 11.3257 52.9219 11.6232 51.9812C11.9206 51.0404 12.4041 50.2634 13.0735 49.65C13.747 49.0239 14.5398 48.6174 15.4519 48.4303C16.3514 48.2393 17.2842 48.2965 18.2504 48.6021C19.2165 48.9076 20.019 49.3991 20.6578 50.0765C21.2839 50.75 21.6925 51.5364 21.8835 52.4359C22.0786 53.3226 22.0274 54.2364 21.7299 55.1771ZM20.8718 54.9058C21.113 54.143 21.1501 53.4066 20.983 52.6965C20.82 51.9737 20.475 51.3402 19.9479 50.796C19.4248 50.239 18.7565 49.8319 17.9428 49.5746C17.1292 49.3173 16.3483 49.2662 15.6001 49.4211C14.8559 49.5634 14.2094 49.8833 13.6604 50.381C13.1155 50.8659 12.7225 51.4898 12.4813 52.2525C12.2401 53.0153 12.201 53.7581 12.364 54.4809C12.531 55.1909 12.876 55.8245 13.3991 56.3814C13.9262 56.9257 14.5966 57.3264 15.4102 57.5837C16.2238 57.841 17.0027 57.8985 17.7469 57.7563C18.4951 57.6013 19.1417 57.2814 19.6866 56.7964C20.2355 56.2988 20.6306 55.6685 20.8718 54.9058Z" fill="white"/>
<path d="M22.9686 30.3736L29.651 39.3191L29.1464 40.1121L19.6129 38.2184L25.3564 46.0686L24.8625 46.8448L13.9285 44.5815L14.4439 43.7716L24.1753 45.8386L18.2231 37.8319L18.6847 37.1063L28.4315 39.1121L22.4747 31.1498L22.9686 30.3736Z" fill="white"/>
<path d="M29.3283 24.5111C30.298 23.6353 31.3196 23.2248 32.393 23.2794C33.4664 23.3341 34.4812 23.8908 35.4374 24.9496L39.5259 29.4767L38.7837 30.147L34.7489 25.6792C33.9625 24.8084 33.1411 24.3465 32.2847 24.2935C31.4383 24.2315 30.6192 24.558 29.8276 25.2729C28.9172 26.095 28.4456 27.015 28.4126 28.0329C28.3797 29.0508 28.7787 30.0199 29.6098 30.9401L33.3363 35.0665L32.5942 35.7367L25.5969 27.9887L26.3094 27.3452L27.8241 29.0225C27.5998 28.237 27.6113 27.454 27.8588 26.6736C28.1161 25.8843 28.6059 25.1635 29.3283 24.5111Z" fill="white"/>
<path d="M48.5979 24.2788C47.837 24.6346 47.0586 24.8587 46.2629 24.9512C45.4671 25.0436 44.7941 25.0051 44.2438 24.8355L44.3216 23.916C44.8606 24.0614 45.4829 24.1016 46.1885 24.0366C46.9061 23.9659 47.5971 23.7753 48.2614 23.4647C49.2155 23.0185 49.8426 22.5339 50.1427 22.0109C50.4548 21.4822 50.4809 20.9401 50.2211 20.3845C50.0348 19.986 49.7611 19.7312 49.4001 19.6204C49.0513 19.5038 48.6703 19.4759 48.2571 19.5367C47.8439 19.5974 47.289 19.7171 46.5924 19.8956C45.7814 20.1129 45.1098 20.2504 44.5774 20.308C44.045 20.3656 43.5338 20.2955 43.0439 20.0977C42.554 19.9 42.1651 19.4931 41.877 18.8771C41.5269 18.1283 41.5468 17.3683 41.9369 16.5971C42.3334 15.8082 43.1053 15.1455 44.2527 14.609C44.8566 14.3266 45.494 14.1315 46.1649 14.0239C46.8358 13.9162 47.4234 13.9137 47.9277 14.0165L47.8499 14.936C47.3335 14.8389 46.7938 14.8337 46.2309 14.9203C45.6679 15.007 45.1267 15.1717 44.6074 15.4146C43.7257 15.8269 43.1376 16.3006 42.8432 16.8356C42.5488 17.3707 42.5259 17.904 42.7744 18.4354C42.9721 18.8581 43.2542 19.131 43.6208 19.2539C43.9818 19.3648 44.3717 19.3959 44.7905 19.3473C45.2157 19.2809 45.7916 19.1588 46.518 18.981C47.3169 18.7694 47.9765 18.6376 48.4968 18.5856C49.0235 18.5159 49.523 18.5767 49.9951 18.7681C50.4673 18.9594 50.8418 19.351 51.1185 19.9428C51.4856 20.7279 51.4532 21.5084 51.0213 22.2845C50.5893 23.0605 49.7815 23.7253 48.5979 24.2788Z" fill="white"/>
<path d="M58.0939 20.8743C57.1129 21.1282 56.1784 21.1359 55.2903 20.8975C54.4022 20.659 53.6385 20.2094 52.9992 19.5485C52.3566 18.8747 51.9083 18.0472 51.6544 17.0662C51.3972 16.0723 51.3878 15.1313 51.6262 14.2433C51.8613 13.3423 52.311 12.5786 52.9752 11.9522C53.6361 11.3129 54.4571 10.8663 55.4381 10.6124C56.2513 10.4019 57.0288 10.3728 57.7706 10.5252C58.522 10.6612 59.1827 10.9792 59.7528 11.4789L59.1717 12.1871C58.68 11.7772 58.1313 11.5198 57.5257 11.4149C56.9297 11.2937 56.309 11.3166 55.6636 11.4837C54.8762 11.6874 54.213 12.0519 53.674 12.577C53.1447 13.0859 52.7828 13.7098 52.5884 14.4487C52.4069 15.1843 52.4247 15.9716 52.6419 16.8107C52.859 17.6497 53.2254 18.3468 53.7409 18.902C54.2694 19.4539 54.8902 19.8303 55.6033 20.0314C56.326 20.2162 57.081 20.2068 57.8684 20.003C58.5138 19.8359 59.0694 19.5613 59.5352 19.1791C60.0105 18.7806 60.3637 18.2829 60.5949 17.6859L61.4465 18.0233C61.1905 18.7369 60.7686 19.3419 60.1809 19.8383C59.6028 20.3185 58.9071 20.6638 58.0939 20.8743Z" fill="white"/>
<path d="M64.4178 11.4203C64.6722 10.6359 65.1212 10.0156 65.7649 9.55943C66.4074 9.08995 67.2136 8.81397 68.1834 8.73148L68.2665 9.70796L68.0257 9.70837C66.8698 9.80668 65.9975 10.2489 65.4087 11.0349C64.8187 11.8077 64.5785 12.8384 64.6881 14.1271L65.1492 19.5475L64.1528 19.6323L63.268 9.22985L64.2245 9.14849L64.4178 11.4203Z" fill="white"/>
<path d="M75.3723 19.5882C74.3902 19.4932 73.5228 19.1816 72.7701 18.6534C72.0308 18.1264 71.474 17.443 71.0997 16.6031C70.7268 15.7499 70.5891 14.819 70.6866 13.8103C70.7841 12.8017 71.097 11.9211 71.6253 11.1684C72.1548 10.4025 72.8328 9.83178 73.6595 9.45627C74.4994 9.08204 75.4104 8.94241 76.3925 9.03737C77.3746 9.13234 78.2353 9.4433 78.9747 9.97024C79.7274 10.4985 80.2901 11.1892 80.6631 12.0424C81.0373 12.8823 81.1757 13.8066 81.0781 14.8152C80.9806 15.8238 80.6671 16.7111 80.1376 17.477C79.6093 18.2297 78.9253 18.7931 78.0854 19.1673C77.2587 19.5429 76.3543 19.6831 75.3723 19.5882ZM75.4589 18.6923C76.2552 18.7693 76.9832 18.6522 77.6428 18.3409C78.3158 18.0309 78.8635 17.5615 79.286 16.9325C79.7218 16.3049 79.9807 15.5664 80.0629 14.717C80.145 13.8676 80.0324 13.0932 79.7249 12.3937C79.4308 11.6955 78.9831 11.1298 78.382 10.6966C77.7942 10.2647 77.1022 10.0102 76.3059 9.9332C75.5096 9.8562 74.775 9.9727 74.102 10.2827C73.4423 10.594 72.8946 11.0634 72.4588 11.6911C72.0363 12.32 71.784 13.0592 71.7019 13.9085C71.6197 14.7579 71.7258 15.5317 72.0199 16.2299C72.3274 16.9294 72.775 17.4951 73.3628 17.927C73.9639 18.3602 74.6626 18.6153 75.4589 18.6923Z" fill="white"/>
<path d="M86.1834 6.31059L87.1524 6.55746L83.4888 20.9381L82.5198 20.6913L86.1834 6.31059Z" fill="white"/>
<path d="M92.2214 8.09399L93.1628 8.4312L88.1587 22.4021L87.2173 22.0649L92.2214 8.09399Z" fill="white"/>
<path d="M111.526 18.5428L103.106 30.7631L102.299 30.207L103.695 28.1813C102.893 28.6166 102.06 28.8035 101.196 28.7422C100.331 28.6809 99.5092 28.3817 98.7296 27.8446C97.9281 27.2924 97.3321 26.6064 96.9415 25.7868C96.5509 24.9672 96.3959 24.0993 96.4765 23.1834C96.5681 22.275 96.9051 21.398 97.4876 20.5526C98.0701 19.7072 98.7695 19.0799 99.5857 18.6708C100.42 18.2582 101.287 18.094 102.184 18.178C103.089 18.251 103.942 18.5636 104.744 19.1158C105.512 19.6454 106.074 20.2994 106.428 21.0777C106.793 21.8637 106.928 22.7016 106.833 23.5915L110.703 17.9755L111.526 18.5428ZM99.2897 27.1375C99.9485 27.5914 100.642 27.8424 101.37 27.8905C102.108 27.9462 102.815 27.8017 103.49 27.457C104.176 27.1198 104.76 26.5999 105.245 25.8972C105.729 25.1945 106.006 24.4628 106.077 23.702C106.159 22.9487 106.042 22.2369 105.727 21.5663C105.423 20.9033 104.941 20.3449 104.283 19.891C103.624 19.4371 102.925 19.1823 102.186 19.1266C101.458 19.0785 100.751 19.223 100.066 19.5602C99.3911 19.9049 98.8117 20.4286 98.3275 21.1313C97.8434 21.834 97.5604 22.562 97.4786 23.3152C97.4078 24.076 97.5245 24.7879 97.8287 25.4509C98.1439 26.1214 98.6309 26.6836 99.2897 27.1375Z" fill="white"/>
<path d="M108.23 35.9906C107.566 35.2607 107.133 34.4474 106.93 33.5506C106.736 32.6636 106.782 31.7833 107.069 30.9096C107.366 30.027 107.889 29.2447 108.638 28.5628C109.388 27.8809 110.211 27.4384 111.108 27.2354C112.014 27.0235 112.9 27.0559 113.765 27.3327C114.639 27.6194 115.407 28.1277 116.071 28.8576C116.735 29.5874 117.164 30.3958 117.358 31.2828C117.561 32.1796 117.515 33.0693 117.218 33.952C116.931 34.8257 116.413 35.6035 115.664 36.2854C114.914 36.9673 114.086 37.4142 113.179 37.6262C112.282 37.8292 111.397 37.7873 110.523 37.5006C109.659 37.2238 108.894 36.7204 108.23 35.9906ZM108.896 35.3849C109.434 35.9767 110.053 36.3788 110.75 36.5911C111.457 36.8133 112.178 36.8332 112.914 36.6509C113.658 36.4784 114.346 36.1051 114.977 35.5308C115.608 34.9566 116.045 34.3071 116.287 33.5823C116.538 32.8674 116.586 32.1476 116.431 31.423C116.286 30.7082 115.944 30.055 115.406 29.4632C114.867 28.8714 114.245 28.4644 113.538 28.2423C112.84 28.0299 112.119 28.01 111.374 28.1825C110.639 28.3648 109.956 28.7431 109.325 29.3173C108.693 29.8915 108.252 30.5361 108.001 31.251C107.759 31.9758 107.711 32.6956 107.857 33.4103C108.011 34.135 108.358 34.7932 108.896 35.3849Z" fill="white"/>
<path d="M129.005 49.3256L117.919 50.6554L117.483 49.8225L123.88 42.5042L114.211 43.5665L113.785 42.7513L121.2 34.4036L121.645 35.2543L114.999 42.6576L124.908 41.4924L125.307 42.2545L118.707 49.7017L128.579 48.5104L129.005 49.3256Z" fill="white"/>
<path d="M130.873 57.6457C131.147 58.9233 130.992 60.0133 130.409 60.9159C129.825 61.8184 128.836 62.4194 127.441 62.7187L121.477 63.9985L121.267 63.0208L127.153 61.7577C128.3 61.5116 129.111 61.0308 129.584 60.3155C130.061 59.6132 130.187 58.7406 129.964 57.6976C129.706 56.4983 129.145 55.6301 128.28 55.093C127.414 54.5559 126.375 54.4175 125.163 54.6776L119.727 55.8442L119.517 54.8664L129.725 52.676L129.926 53.6146L127.716 54.0888C128.509 54.2869 129.181 54.6881 129.734 55.2923C130.289 55.9096 130.669 56.694 130.873 57.6457Z" fill="white"/>
</svg>
